<svg width="17" height="17" viewBox="0 0 17 17" fill="none" xmlns="http://www.w3.org/2000/svg">
<path fill-rule="evenodd" clip-rule="evenodd" d="M11.7849 0.383789H5.15814C2.46497 0.383789 0.273926 2.57484 0.273926 5.268V11.8948C0.273926 14.5879 2.46497 16.779 5.15814 16.779H11.7849C14.4781 16.779 16.6691 14.5879 16.6691 11.8948V5.268C16.6691 2.57484 14.478 0.383789 11.7849 0.383789ZM15.0197 11.8953C15.0197 13.6819 13.5714 15.1302 11.7848 15.1302H5.15808C3.37153 15.1302 1.92322 13.6819 1.92322 11.8953V5.26855C1.92322 3.48197 3.37153 2.03369 5.15808 2.03369H11.7848C13.5714 2.03369 15.0197 3.48197 15.0197 5.26855V11.8953ZM4.23083 8.58215C4.23083 6.24403 6.13307 4.3418 8.47121 4.3418C10.8094 4.3418 12.7116 6.244 12.7116 8.58215C12.7116 10.9203 10.8094 12.8225 8.47121 12.8225C6.13307 12.8225 4.23083 10.9203 4.23083 8.58215ZM8.47127 11.1721C7.04027 11.1721 5.88024 10.012 5.88024 8.58105C5.88024 7.15006 7.0403 5.99003 8.47127 5.99003C9.90226 5.99003 11.0623 7.15006 11.0623 8.58105C11.0623 10.012 9.90223 11.1721 8.47127 11.1721ZM13.7362 4.37058C13.7362 4.93174 13.2813 5.38666 12.7201 5.38666C12.159 5.38666 11.7041 4.93174 11.7041 4.37058C11.7041 3.80941 12.159 3.3545 12.7201 3.3545C13.2813 3.3545 13.7362 3.80941 13.7362 4.37058Z" fill="#A91E38"/>
</svg>
