<svg width="22" height="23" viewBox="0 0 22 23" fill="none" xmlns="http://www.w3.org/2000/svg">
<path d="M15.9671 13.6633L15.959 13.7309C13.9755 12.7424 13.7681 12.6107 13.5119 12.9949C13.3342 13.261 12.8165 13.8644 12.6604 14.043C12.5026 14.2189 12.3456 14.2324 12.0777 14.1107C11.8071 13.9754 10.9385 13.6913 9.91026 12.7712C9.10929 12.0541 8.5717 11.1747 8.41295 10.9041C8.14867 10.4477 8.70159 10.3827 9.2049 9.43024C9.2951 9.24083 9.2491 9.092 9.18235 8.9576C9.1147 8.8223 8.57621 7.49637 8.35072 6.96781C8.13424 6.44104 7.91145 6.50779 7.74458 6.50779C7.22503 6.46269 6.84529 6.46991 6.51065 6.81808C5.05484 8.41821 5.42195 10.0689 6.6676 11.8241C9.1156 15.028 10.4199 15.6179 12.8048 16.4369C13.4488 16.6417 14.036 16.6128 14.5005 16.5461C15.0182 16.464 16.0943 15.8957 16.3189 15.2598C16.5489 14.6239 16.5489 14.0962 16.4813 13.9745C16.4145 13.8527 16.2377 13.7851 15.9671 13.6633Z" fill="#A91E38"/>
<path d="M18.6846 3.86966C11.7492 -2.83484 0.271392 2.02779 0.266882 11.4861C0.266882 13.3767 0.762076 15.2203 1.70556 16.8484L0.175781 22.4065L5.8899 20.9164C13.0201 24.7679 21.82 19.6536 21.8236 11.4915C21.8236 8.62676 20.7051 5.93071 18.6711 3.90484L18.6846 3.86966ZM20.0214 11.4617C20.016 18.3466 12.4582 22.6464 6.4807 19.1323L6.15599 18.9392L2.77352 19.8187L3.68002 16.5309L3.46444 16.1927C-0.255371 10.2711 4.01827 2.53201 11.0646 2.53201C13.4585 2.53201 15.7054 3.46557 17.3975 5.1568C19.0887 6.8336 20.0214 9.08047 20.0214 11.4617Z" fill="#A91E38"/>
</svg>
