<svg width="18" height="19" viewBox="0 0 18 19" fill="none" xmlns="http://www.w3.org/2000/svg">
<path d="M17.1209 9.25538C17.1128 9.25538 17.1049 9.25538 17.0969 9.25519C16.6418 9.24234 16.2831 8.86276 16.2959 8.40762C16.3383 6.91366 15.8027 5.48251 14.7879 4.37847C13.801 3.3049 12.4368 2.65614 10.9469 2.55225C10.4929 2.52042 10.1501 2.12646 10.1817 1.67229C10.2136 1.21794 10.6094 0.874192 11.0617 0.907172C12.974 1.04079 14.7285 1.87704 16.0018 3.26249C17.3089 4.68495 17.9988 6.52884 17.944 8.45439C17.9319 8.90127 17.5652 9.25533 17.1206 9.25533L17.1209 9.25538ZM14.1906 9.23793C14.1645 9.23793 14.1386 9.23678 14.1122 9.2341C13.659 9.19154 13.3258 8.78934 13.3688 8.33593C13.4391 7.58922 13.2154 6.96255 12.665 6.36361C12.0592 5.70396 11.3353 5.34506 10.6452 5.36233C10.6394 5.36253 10.6338 5.36253 10.6281 5.36253C10.1805 5.36253 9.81316 5.00422 9.80413 4.55486C9.79474 4.09975 10.1561 3.72324 10.6116 3.71382C11.7901 3.6889 12.9487 4.23487 13.8791 5.24769C14.7437 6.1884 15.124 7.27959 15.0098 8.49023C14.9699 8.91774 14.611 9.23787 14.1906 9.23787L14.1906 9.23793Z" fill="#C01233"/>
<path d="M12.4469 18.5232C12.2903 18.5232 12.1427 18.5015 12.0081 18.4591C9.66562 17.7226 7.15345 16.1318 5.11762 14.0947C3.0811 12.059 1.48972 9.54638 0.752233 7.20176C0.577777 6.65023 0.779455 5.85674 1.20179 5.43438L2.99253 3.64326C3.33933 3.29588 3.80078 3.10439 4.2921 3.10439C4.78153 3.10439 5.24165 3.29456 5.58749 3.64041L7.01378 5.06709C7.36058 5.41332 7.55074 5.87456 7.54941 6.36592C7.54826 6.85536 7.35694 7.31582 7.01054 7.66225L6.2945 8.37829C6.22165 8.45133 6.22031 8.56923 6.29201 8.64113L10.571 12.9202C10.6149 12.9641 10.6655 12.9733 10.6998 12.9733C10.7355 12.9733 10.7872 12.9638 10.833 12.9177L11.5498 12.2015C11.8978 11.8536 12.3594 11.6622 12.8504 11.6622C13.3396 11.6622 13.7993 11.8526 14.1452 12.1987L15.5711 13.6246C16.286 14.3395 16.2848 15.5033 15.5686 16.2194L13.7788 18.0094C13.4245 18.3644 12.8545 18.5232 12.4469 18.5232Z" fill="#C01233"/>
</svg>
