<svg width="41" height="40" viewBox="0 0 41 40" fill="none" xmlns="http://www.w3.org/2000/svg">
<rect x="0.119873" y="0.620605" width="40.1538" height="39.2183" rx="19.6091" fill="#A91E38"/>
<path d="M28.5313 19.7397C28.5227 19.7397 28.5143 19.7397 28.5057 19.7395C28.0195 19.7258 27.6364 19.3203 27.6501 18.8342C27.6954 17.2383 27.1232 15.7096 26.0393 14.5303C24.9851 13.3835 23.5279 12.6905 21.9363 12.5795C21.4514 12.5455 21.0852 12.1247 21.119 11.6396C21.153 11.1542 21.5759 10.7871 22.059 10.8223C24.1016 10.965 25.9758 11.8583 27.3359 13.3382C28.7321 14.8577 29.4691 16.8273 29.4105 18.8841C29.3976 19.3615 29.0059 19.7397 28.531 19.7397L28.5313 19.7397ZM25.4012 19.7211C25.3733 19.7211 25.3457 19.7199 25.3174 19.717C24.8333 19.6715 24.4775 19.2419 24.5233 18.7576C24.5985 17.96 24.3595 17.2906 23.7716 16.6508C23.1244 15.9461 22.3512 15.5628 21.614 15.5812C21.6079 15.5814 21.6019 15.5814 21.5958 15.5814C21.1176 15.5814 20.7253 15.1987 20.7156 14.7187C20.7056 14.2325 21.0916 13.8304 21.5782 13.8203C22.837 13.7937 24.0746 14.3769 25.0684 15.4588C25.992 16.4636 26.3983 17.6292 26.2762 18.9224C26.2336 19.3791 25.8503 19.721 25.4012 19.721L25.4012 19.7211Z" fill="white"/>
<path d="M23.5386 29.6394C23.3713 29.6394 23.2136 29.6163 23.0699 29.571C20.5677 28.7843 17.8842 27.085 15.7096 24.909C13.5342 22.7344 11.8343 20.0506 11.0466 17.5461C10.8602 16.9569 11.0756 16.1093 11.5268 15.6582L13.4396 13.7449C13.8101 13.3739 14.303 13.1693 14.8278 13.1693C15.3506 13.1693 15.8421 13.3725 16.2115 13.7419L17.735 15.2658C18.1055 15.6357 18.3086 16.1284 18.3072 16.6532C18.306 17.176 18.1016 17.6679 17.7316 18.038L16.9667 18.8028C16.8889 18.8808 16.8875 19.0068 16.9641 19.0836L21.5348 23.6545C21.5817 23.7014 21.6357 23.7112 21.6724 23.7112C21.7105 23.7112 21.7658 23.7009 21.8147 23.6518L22.5804 22.8867C22.952 22.515 23.4452 22.3107 23.9696 22.3107C24.4922 22.3107 24.9833 22.514 25.3527 22.8837L26.8759 24.4069C27.6395 25.1705 27.6383 26.4137 26.8732 27.1786L24.9614 29.0906C24.5829 29.4699 23.974 29.6394 23.5386 29.6394Z" fill="white"/>
</svg>
