<svg width="41" height="40" viewBox="0 0 41 40" fill="none" xmlns="http://www.w3.org/2000/svg">
<rect x="0.119873" y="0.323486" width="40.1538" height="39.2183" rx="19.6091" fill="#4CC85B"/>
<path d="M16.5791 26.2416C17.7849 26.9193 19.1721 27.3031 20.649 27.3031C25.2482 27.3031 28.9858 23.563 28.9858 18.9646C28.9858 14.3662 25.2482 10.626 20.649 10.626H20.6455C16.0464 10.626 12.3087 14.3652 12.3087 18.9646C12.3087 20.5539 12.7558 22.0444 13.5333 23.3109L12.8399 25.3777L12.0661 27.6843L14.3835 26.9435L16.5791 26.2416Z" fill="#4CC85B" stroke="white" stroke-width="2.46469"/>
<path d="M24.1877 22.445L24.1274 22.5052C23.8269 22.8082 23.424 22.9882 22.9978 23.0098H22.7003C21.1263 23.0098 19.861 22.4223 18.5243 21.0893C17.1046 19.6696 16.5323 18.3329 16.6114 16.6158H16.6113C16.6329 16.1895 16.8129 15.7867 17.1159 15.4861L17.1762 15.4258C17.5574 15.043 18.0962 14.8614 18.6313 14.9355C19.1664 15.0095 19.6358 15.3305 19.8988 15.8024L19.9816 15.953H19.9816C20.0861 16.1435 20.1262 16.3628 20.0956 16.5781C20.0651 16.7933 19.9656 16.9928 19.8121 17.1467L19.3075 17.6513C19.5989 18.212 19.9805 18.7209 20.4372 19.1576C20.8739 19.6143 21.3827 19.9959 21.9435 20.2873L22.4443 19.7901C22.6018 19.6354 22.8059 19.5368 23.0251 19.5096C23.2442 19.4823 23.4662 19.528 23.6568 19.6395L23.8074 19.7224C24.2793 19.9854 24.6003 20.4547 24.6743 20.9899C24.7483 21.5249 24.5668 22.0637 24.184 22.4449L24.1877 22.445Z" fill="white"/>
</svg>
