<svg width="21" height="28" viewBox="0 0 21 28" fill="none" xmlns="http://www.w3.org/2000/svg">
<path d="M20.6231 9.35124L12.2838 1.01216C12.0492 0.777523 11.7311 0.645752 11.3993 0.645752H2.22602C1.53517 0.645752 0.975098 1.20583 0.975098 1.89668V26.0807C0.975098 26.7716 1.53517 27.3316 2.22602 27.3316H19.7386C20.4294 27.3316 20.9895 26.7716 20.9895 26.0807V10.2357C20.9895 9.90401 20.8577 9.58576 20.6231 9.35124ZM12.6502 4.91646L16.7187 8.98477H12.6502V4.91646ZM18.4877 24.8298H3.47695V3.14754H10.1484V10.2357C10.1484 10.9266 10.7085 11.4866 11.3993 11.4866H18.4877V24.8298Z" fill="#26377C"/>
<path d="M14.7519 19.8276H7.24653C6.55568 19.8276 5.99561 20.3877 5.99561 21.0786C5.99561 21.7694 6.55568 22.3295 7.24653 22.3295H14.7519C15.4428 22.3295 16.0028 21.7694 16.0028 21.0786C16.0028 20.3877 15.4428 19.8276 14.7519 19.8276Z" fill="#26377C"/>
<path d="M14.7519 14.8237H7.24653C6.55568 14.8237 5.99561 15.3838 5.99561 16.0747C5.99561 16.7655 6.55568 17.3256 7.24653 17.3256H14.7519C15.4428 17.3256 16.0028 16.7655 16.0028 16.0747C16.0028 15.3838 15.4428 14.8237 14.7519 14.8237Z" fill="#26377C"/>
</svg>
