<svg width="21" height="21" viewBox="0 0 21 21" fill="none" xmlns="http://www.w3.org/2000/svg">
<path d="M7.11683 17.018C8.26885 17.6606 9.59219 18.0243 11.0004 18.0243C15.4141 18.0243 19.0008 14.4351 19.0008 10.0222C19.0008 5.60932 15.4141 2.0201 11.0004 2.0201H10.9971C6.58349 2.0201 2.99666 5.60837 2.99666 10.0222C2.99666 11.5376 3.42032 12.9596 4.15764 14.1699L3.50576 16.1131L2.73199 18.4197L5.04936 17.6789L7.11683 17.018Z" fill="#4CC85B" stroke="white" stroke-width="2.46469"/>
<path d="M14.3716 13.3378L14.3142 13.3952C14.0278 13.6839 13.6441 13.8553 13.238 13.8759H12.9546C11.4551 13.8759 10.2498 13.3163 8.97636 12.0464C7.6239 10.6939 7.07868 9.42046 7.15404 7.78463H7.15396C7.17454 7.37857 7.34598 6.99479 7.63464 6.70843L7.69205 6.65102C8.05519 6.28636 8.56855 6.11339 9.0783 6.18395C9.58805 6.25442 10.0352 6.56021 10.2857 7.00975L10.3647 7.15325H10.3646C10.4642 7.33478 10.5024 7.54369 10.4733 7.74876C10.4442 7.95376 10.3494 8.14384 10.2032 8.29047L9.72249 8.77115C10 9.30534 10.3636 9.7901 10.7987 10.2061C11.2147 10.6412 11.6994 11.0047 12.2336 11.2823L12.7107 10.8087C12.8608 10.6613 13.0552 10.5674 13.264 10.5414C13.4728 10.5155 13.6842 10.559 13.8658 10.6652L14.0093 10.7442C14.4589 10.9947 14.7647 11.4418 14.8351 11.9516C14.9057 12.4614 14.7327 12.9746 14.3681 13.3378L14.3716 13.3378Z" fill="white"/>
</svg>
