<svg width="48" height="60" viewBox="0 0 48 60" fill="none" xmlns="http://www.w3.org/2000/svg">
<path fill-rule="evenodd" clip-rule="evenodd" d="M11.5959 50.3811C12.0187 50.3811 12.3615 50.7239 12.3615 51.1467V58.4739C12.3615 58.8967 12.0187 59.2395 11.5959 59.2395C11.1731 59.2395 10.8303 58.8967 10.8303 58.4739V51.1467C10.8303 50.7239 11.1731 50.3811 11.5959 50.3811Z" fill="#A91E38"/>
<path fill-rule="evenodd" clip-rule="evenodd" d="M24.2692 50.3811C24.692 50.3811 25.0348 50.7239 25.0348 51.1467V58.4739C25.0348 58.8967 24.692 59.2395 24.2692 59.2395C23.8464 59.2395 23.5037 58.8967 23.5037 58.4739V51.1467C23.5037 50.7239 23.8464 50.3811 24.2692 50.3811Z" fill="#A91E38"/>
<path fill-rule="evenodd" clip-rule="evenodd" d="M1.07362 50.4619C1.45943 50.2889 1.91242 50.4614 2.08542 50.8472L4.8311 56.9706L7.61242 50.844C7.7872 50.459 8.24099 50.2886 8.62599 50.4633C9.01098 50.6381 9.1814 51.0919 9.00662 51.4769L5.71094 58.7365C5.36572 59.497 4.28478 59.4944 3.9431 58.7324L0.688295 51.4737C0.515302 51.0879 0.687819 50.6349 1.07362 50.4619Z" fill="#A91E38"/>
<path fill-rule="evenodd" clip-rule="evenodd" d="M38.2297 54.6548C38.2297 52.3021 40.137 50.3949 42.4896 50.3949C44.8423 50.3949 46.7495 52.3021 46.7495 54.6548V58.4739C46.7495 58.8967 46.4067 59.2395 45.9839 59.2395C45.5611 59.2395 45.2184 58.8967 45.2184 58.4739V54.6548C45.2184 53.1477 43.9967 51.926 42.4896 51.926C40.9826 51.926 39.7609 53.1477 39.7609 54.6548V58.4739C39.7609 58.8967 39.4181 59.2395 38.9953 59.2395C38.5725 59.2395 38.2297 58.8967 38.2297 58.4739V54.6548Z" fill="#A91E38"/>
<path fill-rule="evenodd" clip-rule="evenodd" d="M31.6323 57.9317C33.35 57.9317 34.7425 56.5393 34.7425 54.8216C34.7425 53.1039 33.35 51.7114 31.6323 51.7114C29.9146 51.7114 28.5221 53.1039 28.5221 54.8216C28.5221 56.5393 29.9146 57.9317 31.6323 57.9317ZM31.6323 59.4629C34.1956 59.4629 36.2736 57.3849 36.2736 54.8216C36.2736 52.2582 34.1956 50.1802 31.6323 50.1802C29.069 50.1802 26.991 52.2582 26.991 54.8216C26.991 57.3849 29.069 59.4629 31.6323 59.4629Z" fill="#A91E38"/>
<path d="M12.7084 48.0036C12.7084 48.618 12.2103 49.1161 11.5959 49.1161C10.9815 49.1161 10.4834 48.618 10.4834 48.0036C10.4834 47.3891 10.9815 46.8911 11.5959 46.8911C12.2103 46.8911 12.7084 47.3891 12.7084 48.0036Z" fill="#A91E38"/>
<path d="M25.3818 48.0036C25.3818 48.618 24.8837 49.1161 24.2693 49.1161C23.6548 49.1161 23.1567 48.618 23.1567 48.0036C23.1567 47.3891 23.6548 46.8911 24.2693 46.8911C24.8837 46.8911 25.3818 47.3891 25.3818 48.0036Z" fill="#A91E38"/>
<path fill-rule="evenodd" clip-rule="evenodd" d="M27.9604 38.6677C28.3823 38.6394 28.7472 38.9585 28.7756 39.3803C28.8147 39.9641 29.0178 40.5249 29.3613 40.9985C29.7049 41.472 30.175 41.8391 30.7178 42.0575C31.2606 42.2758 31.8539 42.3367 32.4297 42.2331C33.0055 42.1294 33.5404 41.8655 33.973 41.4715C34.2856 41.1869 34.7698 41.2095 35.0545 41.5221C35.3392 41.8347 35.3165 42.3189 35.0039 42.6036C34.3584 43.1915 33.5602 43.5853 32.701 43.74C31.8417 43.8947 30.9562 43.8038 30.1463 43.4779C29.3363 43.152 28.6347 42.6043 28.122 41.8976C27.6093 41.1909 27.3063 40.354 27.2478 39.4828C27.2195 39.061 27.5386 38.696 27.9604 38.6677Z" fill="#26377C"/>
<path fill-rule="evenodd" clip-rule="evenodd" d="M14.3488 42.2823C16.0666 42.2823 17.459 40.8898 17.459 39.1721C17.459 37.4544 16.0666 36.0619 14.3488 36.0619C12.6311 36.0619 11.2387 37.4544 11.2387 39.1721C11.2387 40.8898 12.6311 42.2823 14.3488 42.2823ZM14.3488 43.8134C16.9122 43.8134 18.9902 41.7354 18.9902 39.1721C18.9902 36.6088 16.9122 34.5308 14.3488 34.5308C11.7855 34.5308 9.70752 36.6088 9.70752 39.1721C9.70752 41.7354 11.7855 43.8134 14.3488 43.8134Z" fill="#26377C"/>
<path fill-rule="evenodd" clip-rule="evenodd" d="M42.4895 42.2823C44.2072 42.2823 45.5997 40.8898 45.5997 39.1721C45.5997 37.4544 44.2072 36.0619 42.4895 36.0619C40.7718 36.0619 39.3793 37.4544 39.3793 39.1721C39.3793 40.8898 40.7718 42.2823 42.4895 42.2823ZM42.4895 43.8134C45.0528 43.8134 47.1308 41.7354 47.1308 39.1721C47.1308 36.6088 45.0528 34.5308 42.4895 34.5308C39.9261 34.5308 37.8481 36.6088 37.8481 39.1721C37.8481 41.7354 39.9261 43.8134 42.4895 43.8134Z" fill="#26377C"/>
<path fill-rule="evenodd" clip-rule="evenodd" d="M34.6997 38.1781C34.5374 37.7693 34.3116 37.3982 34.0343 37.085C33.4425 36.4166 32.6762 36.0726 31.9146 36.0622C31.1535 36.0518 30.3825 36.3743 29.779 37.0235C29.4944 37.3295 29.2602 37.6953 29.0891 38.1013L31.8996 38.1781H34.6997ZM36.3125 38.1781C36.0942 37.3913 35.7088 36.6666 35.1807 36.07C34.3225 35.1007 33.1566 34.5478 31.9355 34.5312C30.7145 34.5145 29.5368 35.0353 28.6576 35.9809C28.1165 36.5628 27.7154 37.2767 27.4799 38.0573C27.3386 38.5257 27.2569 39.0181 27.2405 39.5203C27.2398 39.541 27.2392 39.5617 27.2388 39.5824L31.8787 39.7093H36.52C36.52 39.1854 36.4489 38.6696 36.3125 38.1781Z" fill="#26377C"/>
<path fill-rule="evenodd" clip-rule="evenodd" d="M2.07221 30.9724C2.49503 30.9724 2.83779 31.3152 2.83779 31.738V38.4642L3.71941 37.5892L7.15784 34.1767C7.45794 33.8788 7.94267 33.8806 8.24052 34.1807C8.53836 34.4809 8.53653 34.9656 8.23643 35.2634L5.3205 38.1574L9.06479 42.2381C9.35065 42.5496 9.32983 43.0339 9.01829 43.3198C8.70675 43.6056 8.22247 43.5848 7.93661 43.2733L4.23291 39.2369L2.83779 40.6215V42.7557C2.83779 43.1785 2.49503 43.5212 2.07221 43.5212C1.6494 43.5212 1.30664 43.1785 1.30664 42.7557V31.738C1.30664 31.3152 1.6494 30.9724 2.07221 30.9724Z" fill="#26377C"/>
<path fill-rule="evenodd" clip-rule="evenodd" d="M46.3669 38.372C46.7897 38.372 47.1325 38.7148 47.1325 39.1376V42.8624C47.1325 43.2853 46.7897 43.628 46.3669 43.628C45.9441 43.628 45.6013 43.2853 45.6013 42.8624V39.1376C45.6013 38.7148 45.9441 38.372 46.3669 38.372Z" fill="#26377C"/>
<path fill-rule="evenodd" clip-rule="evenodd" d="M25.7451 35.9348C23.9423 35.9348 22.4809 37.3962 22.4809 39.199V42.8503C22.4809 43.2731 22.1381 43.6159 21.7153 43.6159C21.2925 43.6159 20.9497 43.2731 20.9497 42.8503V39.199C20.9497 36.5506 23.0967 34.4036 25.7451 34.4036C26.1679 34.4036 26.5106 34.7464 26.5106 35.1692C26.5106 35.592 26.1679 35.9348 25.7451 35.9348Z" fill="#26377C"/>
<path d="M22.4659 29.0287H19.5488C19.436 29.0287 19.3446 28.9373 19.3446 28.8246V24.1156C19.3446 24.0913 19.3348 24.068 19.3174 24.0511L13.325 18.2319C11.8931 16.8414 11.7152 14.6043 12.9095 13.005C12.9191 12.992 12.938 12.9907 12.9494 13.0021L22.6102 22.6629C22.6485 22.7012 22.67 22.7532 22.67 22.8073V28.8246C22.67 28.9373 22.5786 29.0287 22.4659 29.0287Z" fill="#26377C"/>
<path d="M25.0627 29.0287H27.9798C28.0925 29.0287 28.1839 28.9373 28.1839 28.8246V24.1156C28.1839 24.0913 28.1938 24.068 28.2112 24.0511L34.2036 18.2319C35.6355 16.8414 35.8133 14.6043 34.6191 13.005C34.6095 12.992 34.5906 12.9907 34.5792 13.0021L24.9183 22.6629C24.88 22.7012 24.8585 22.7532 24.8585 22.8073V28.8246C24.8585 28.9373 24.9499 29.0287 25.0627 29.0287Z" fill="#26377C"/>
<path fill-rule="evenodd" clip-rule="evenodd" d="M26.003 1.75493C29.475 -1.0968 34.7 1.37318 34.7 5.8662C34.7 8.08084 33.8932 10.2196 32.4305 11.8825L25.8676 19.3439C24.8076 20.549 22.9302 20.549 21.8702 19.3439L15.3073 11.8825C13.8446 10.2196 13.0378 8.08084 13.0378 5.8662C13.0378 1.37318 18.2629 -1.0968 21.7349 1.75493L23.8689 3.50771L26.003 1.75493ZM31.6377 5.8662C31.6377 3.95932 29.4201 2.91104 27.9466 4.12133L25.1883 6.38683C24.4215 7.01668 23.3164 7.01668 22.5495 6.38683L19.7912 4.12134C18.3177 2.91104 16.1001 3.95932 16.1001 5.8662C16.1001 7.33635 16.6357 8.75615 17.6067 9.86003L23.8689 16.9795L30.1312 9.86003C31.1021 8.75615 31.6377 7.33635 31.6377 5.8662Z" fill="#A91E38"/>
<path d="M21.1701 56.5821C21.1701 55.3659 20.432 54.5439 18.8133 54.1665L17.5719 53.8813C16.5654 53.6465 16.2551 53.2523 16.2551 52.7239C16.2551 51.9103 16.8842 51.4574 18.0332 51.4574C18.7545 51.4574 19.3584 51.7426 19.6771 51.9858C19.8784 52.12 20.0294 52.1955 20.2391 52.1955C20.5998 52.1955 20.8346 51.8516 20.8346 51.5413C20.8346 51.2813 20.734 51.1135 20.4656 50.9122C20.021 50.5767 19.1655 50.1741 17.9997 50.1741C16.1964 50.1741 14.9299 51.1722 14.9299 52.7574C14.9299 54.0071 15.7854 54.7704 17.1945 55.0975L18.5029 55.4162C19.4591 55.6343 19.8281 56.0201 19.8281 56.6324C19.8281 57.4208 19.2494 57.9827 18.0416 57.9827C16.9009 57.9827 16.2467 57.664 15.7938 57.3201C15.6261 57.2027 15.4667 57.1272 15.2822 57.1272C14.9131 57.1272 14.6951 57.4627 14.6951 57.7395C14.6951 57.9408 14.7706 58.1589 15.0473 58.3602C15.7519 58.9305 16.7667 59.2576 18.0332 59.2576C19.9204 59.2576 21.1701 58.226 21.1701 56.5821Z" fill="#A91E38"/>
<path fill-rule="evenodd" clip-rule="evenodd" d="M18.8365 54.0671C19.6572 54.2585 20.2672 54.5652 20.6725 54.9892C21.08 55.4155 21.2722 55.9515 21.2722 56.5821C21.2722 57.4319 20.9481 58.1301 20.3753 58.6143C19.8042 59.0969 18.9947 59.3597 18.0333 59.3597C16.7512 59.3597 15.7123 59.0289 14.9852 58.4412C14.6838 58.2211 14.593 57.973 14.593 57.7395C14.593 57.4226 14.8418 57.0252 15.2822 57.0252C15.4971 57.0252 15.6773 57.114 15.8524 57.2365L15.8556 57.2388C16.2909 57.5693 16.9235 57.8807 18.0416 57.8807C18.6312 57.8807 19.0521 57.7434 19.3236 57.5238C19.5925 57.3065 19.7261 56.9996 19.7261 56.6324C19.7261 56.3495 19.6421 56.1285 19.454 55.9506C19.2614 55.7686 18.9508 55.623 18.4802 55.5157L18.4788 55.5154L17.1714 55.1969C17.1713 55.1969 17.1716 55.197 17.1714 55.1969C16.4558 55.0307 15.8696 54.7514 15.4618 54.3458C15.0516 53.9378 14.8279 53.4081 14.8279 52.7574C14.8279 51.9352 15.1574 51.2602 15.7236 50.7926C16.2879 50.3266 17.08 50.0721 17.9997 50.0721C19.1887 50.0721 20.0656 50.4825 20.527 50.8307C20.6662 50.9351 20.7703 51.0369 20.8387 51.1529C20.9084 51.2711 20.9367 51.3968 20.9367 51.5413C20.9367 51.8896 20.6729 52.2976 20.2391 52.2976C19.9988 52.2976 19.8269 52.2083 19.6206 52.0707L19.6151 52.0671C19.3117 51.8355 18.7292 51.5595 18.0333 51.5595C17.4698 51.5595 17.0494 51.6709 16.7726 51.8686C16.5009 52.0627 16.3572 52.347 16.3572 52.7239C16.3572 52.9652 16.4267 53.1673 16.6066 53.3388C16.7909 53.5146 17.0995 53.6663 17.595 53.7819C17.595 53.7819 17.5951 53.7819 17.595 53.7819L18.8365 54.0671ZM17.572 53.8813C16.5655 53.6465 16.2551 53.2523 16.2551 52.7239C16.2551 51.9103 16.8842 51.4574 18.0333 51.4574C18.7546 51.4574 19.3585 51.7426 19.6772 51.9858C19.8785 52.12 20.0294 52.1955 20.2391 52.1955C20.5998 52.1955 20.8346 51.8516 20.8346 51.5413C20.8346 51.2813 20.734 51.1135 20.4656 50.9122C20.0211 50.5767 19.1655 50.1741 17.9997 50.1741C16.1964 50.1741 14.9299 51.1722 14.9299 52.7574C14.9299 54.0071 15.7854 54.7704 17.1945 55.0975L18.5029 55.4162C19.4591 55.6343 19.8281 56.0201 19.8281 56.6324C19.8281 57.4208 19.2494 57.9827 18.0416 57.9827C16.901 57.9827 16.2468 57.664 15.7938 57.3201C15.6261 57.2027 15.4667 57.1272 15.2822 57.1272C14.9132 57.1272 14.6951 57.4627 14.6951 57.7395C14.6951 57.9408 14.7706 58.1589 15.0474 58.3602C15.7519 58.9305 16.7668 59.2576 18.0333 59.2576C19.9204 59.2576 21.1701 58.226 21.1701 56.5821C21.1701 55.3659 20.432 54.5439 18.8133 54.1665L17.572 53.8813Z" fill="#A91E38"/>
</svg>
