<svg width="18" height="19" viewBox="0 0 18 19" fill="none" xmlns="http://www.w3.org/2000/svg">
<path fill-rule="evenodd" clip-rule="evenodd" d="M6.45717 17.1944L0.937373 11.6746C-0.312459 10.4248 -0.312457 8.39837 0.937375 7.14854L6.89728 1.18863C7.24458 0.84134 7.66769 0.565529 8.15706 0.523821C9.8197 0.382117 12.6899 0.942484 14.5676 1.40282C15.1097 1.53572 15.5996 1.82273 15.9943 2.21742L16.3621 2.58514C16.8108 3.03389 17.1184 3.60449 17.2272 4.22973C17.5331 5.98704 17.874 8.50039 17.7512 9.88384C17.7111 10.3366 17.4539 10.7237 17.1325 11.0451L10.9832 17.1944C9.73338 18.4442 7.707 18.4442 6.45717 17.1944ZM13.4667 6.51409C14.3721 6.51409 15.1061 5.78012 15.1061 4.87472C15.1061 3.96932 14.3721 3.23535 13.4667 3.23535C12.5613 3.23535 11.8274 3.96932 11.8274 4.87472C11.8274 5.78012 12.5613 6.51409 13.4667 6.51409Z" fill="#A91E38"/>
</svg>
